<svg xmlns="http://www.w3.org/2000/svg" width="33" height="33" fill="none"><path stroke="#101828" stroke-linecap="round" stroke-linejoin="round" stroke-width="1.8" d="M23.167 15.167h2a2 2 0 0 0 0-4h-2v6.666m0 5.334V28.5H24.5a2.667 2.667 0 0 0 0-5.333h-1.333ZM4.5 7.167a2.667 2.667 0 1 0 5.333 0 2.667 2.667 0 0 0-5.333 0Z"/><path stroke="#101828" stroke-linecap="round" stroke-linejoin="round" stroke-width="1.8" d="M7.167 9.833v4A1.333 1.333 0 0 0 8.5 15.167h4m0 0V24.5a1.333 1.333 0 0 0 1.333 1.333h4M12.5 15.167h5.333"/></svg>