<svg xmlns="http://www.w3.org/2000/svg" width="32" height="33" fill="none"><mask id="a" fill="#fff"><path d="M15.554 5.3c-1.351 0-2.66.48-3.705 1.359a6.025 6.025 0 0 0-2.027 3.46l-.104.539a.946.946 0 0 0 .119.71.912.912 0 0 0 .58.407.88.88 0 0 0 .69-.146.913.913 0 0 0 .375-.61l.106-.537a4.162 4.162 0 0 1 1.563-2.513 3.973 3.973 0 0 1 5.399.55 4.21 4.21 0 0 1 1.05 2.78 4.21 4.21 0 0 1-1.186 2.937 4 4 0 0 1-2.864 1.218H2.5a.889.889 0 0 0-.636.27.935.935 0 0 0-.264.653c0 .245.095.48.264.653.168.173.397.27.636.27h13.05a5.785 5.785 0 0 0 4.044-1.808 6.083 6.083 0 0 0 1.665-4.19c0-1.566-.596-3.07-1.662-4.192a5.784 5.784 0 0 0-4.043-1.81ZM25.9 13.608a4.444 4.444 0 0 0-3.182 1.351 4.676 4.676 0 0 0-1.318 3.264c0 .245.095.48.264.653.168.173.397.27.636.27a.889.889 0 0 0 .636-.27.935.935 0 0 0 .264-.653c0-.548.158-1.083.455-1.538.297-.456.718-.81 1.212-1.02a2.637 2.637 0 0 1 1.56-.158 2.68 2.68 0 0 1 1.382.758c.378.387.635.88.74 1.418.103.537.05 1.094-.154 1.6-.205.506-.55.938-.995 1.243a2.652 2.652 0 0 1-1.5.466H2.5a.889.889 0 0 0-.636.27.935.935 0 0 0-.264.653c0 .245.095.48.264.653.168.173.397.27.636.27h17.55a2.222 2.222 0 0 1 1.59.68c.42.433.657 1.02.656 1.633a2.338 2.338 0 0 1-.663 1.63 2.221 2.221 0 0 1-1.592.673 2.241 2.241 0 0 1-1.469-.55 2.348 2.348 0 0 1-.775-1.392l-.01-.056a.94.94 0 0 0-.357-.619.892.892 0 0 0-.682-.167.887.887 0 0 0-.592.385.936.936 0 0 0-.143.704l.009.055c.16.975.651 1.86 1.387 2.498a4.015 4.015 0 0 0 2.632.988 4.006 4.006 0 0 0 2.868-1.216 4.216 4.216 0 0 0 1.191-2.938 4.21 4.21 0 0 0-.682-2.308H25.9a4.444 4.444 0 0 0 3.182-1.351 4.676 4.676 0 0 0 1.318-3.264 4.676 4.676 0 0 0-1.318-3.263 4.444 4.444 0 0 0-3.182-1.352Z"/></mask><path fill="#101828" d="M15.554 5.3c-1.351 0-2.66.48-3.705 1.359a6.025 6.025 0 0 0-2.027 3.46l-.104.539a.946.946 0 0 0 .119.71.912.912 0 0 0 .58.407.88.88 0 0 0 .69-.146.913.913 0 0 0 .375-.61l.106-.537a4.162 4.162 0 0 1 1.563-2.513 3.973 3.973 0 0 1 5.399.55 4.21 4.21 0 0 1 1.05 2.78 4.21 4.21 0 0 1-1.186 2.937 4 4 0 0 1-2.864 1.218H2.5a.889.889 0 0 0-.636.27.935.935 0 0 0-.264.653c0 .245.095.48.264.653.168.173.397.27.636.27h13.05a5.785 5.785 0 0 0 4.044-1.808 6.083 6.083 0 0 0 1.665-4.19c0-1.566-.596-3.07-1.662-4.192a5.784 5.784 0 0 0-4.043-1.81ZM25.9 13.608a4.444 4.444 0 0 0-3.182 1.351 4.676 4.676 0 0 0-1.318 3.264c0 .245.095.48.264.653.168.173.397.27.636.27a.889.889 0 0 0 .636-.27.935.935 0 0 0 .264-.653c0-.548.158-1.083.455-1.538.297-.456.718-.81 1.212-1.02a2.637 2.637 0 0 1 1.56-.158 2.68 2.68 0 0 1 1.382.758c.378.387.635.88.74 1.418.103.537.05 1.094-.154 1.6-.205.506-.55.938-.995 1.243a2.652 2.652 0 0 1-1.5.466H2.5a.889.889 0 0 0-.636.27.935.935 0 0 0-.264.653c0 .245.095.48.264.653.168.173.397.27.636.27h17.55a2.222 2.222 0 0 1 1.59.68c.42.433.657 1.02.656 1.633a2.338 2.338 0 0 1-.663 1.63 2.221 2.221 0 0 1-1.592.673 2.241 2.241 0 0 1-1.469-.55 2.348 2.348 0 0 1-.775-1.392l-.01-.056a.94.94 0 0 0-.357-.619.892.892 0 0 0-.682-.167.887.887 0 0 0-.592.385.936.936 0 0 0-.143.704l.009.055c.16.975.651 1.86 1.387 2.498a4.015 4.015 0 0 0 2.632.988 4.006 4.006 0 0 0 2.868-1.216 4.216 4.216 0 0 0 1.191-2.938 4.21 4.21 0 0 0-.682-2.308H25.9a4.444 4.444 0 0 0 3.182-1.351 4.676 4.676 0 0 0 1.318-3.264 4.676 4.676 0 0 0-1.318-3.263 4.444 4.444 0 0 0-3.182-1.352Z"/><path fill="#101828" d="m15.554 5.3.128-4.998L15.617.3h-.064v5Zm-5.732 4.818L4.915 9.16l-.001.008 4.909.95Zm-.104.54 4.873 1.121.02-.085.016-.086-4.909-.95Zm1.764.361-4.905-.97-.018.09-.014.089 4.937.791Zm.106-.537-4.904-.971v.002l4.904.97Zm8.012.816h5v-.012l-5 .012Zm-4.05 4.156v5h.002l-.002-5Zm-13.95.923h-5 5Zm13.95.923v5h.063l.063-.002-.126-4.998Zm7.65.923h5-5ZM1.6 21.915h-5 5Zm18.45.924.01-5h-.01v5Zm-.009 4.615.01-5h-.014l.004 5Zm-2.244-1.942-4.936.802.002.008v.008l4.934-.818Zm-.01-.056-4.956.655.01.074.011.073 4.936-.802Zm-1.774.303 4.935-.802-.012-.072-.014-.071-4.91.945Zm.009.055-4.936.802.002.009 4.934-.81Zm4.02 3.486.001-5h-.003l.001 5Zm4.058-4.154 5 .009v-.009h-5Zm-.682-2.308v-5h-9.235l5.048 7.733 4.187-2.733ZM15.553.3c-2.542 0-4.987.905-6.922 2.532l6.435 7.654a.758.758 0 0 1 .489-.186l-.002-10ZM8.63 2.832A11.025 11.025 0 0 0 4.915 9.16l9.815 1.917c.05-.255.18-.459.336-.59L8.631 2.831ZM4.914 9.168l-.105.539 9.818 1.901.104-.539-9.817-1.901Zm-.069.368a5.946 5.946 0 0 0-.07 2.312l9.864-1.646a4.053 4.053 0 0 1-.048 1.577L4.845 9.536Zm-.07 2.312c.128.768.406 1.507.824 2.173l8.476-5.306c.286.458.476.964.564 1.487l-9.864 1.646Zm.824 2.173c.417.667.967 1.25 1.621 1.708l5.733-8.194c.456.319.835.722 1.122 1.18l-8.476 5.306ZM7.22 15.73c.655.458 1.4.781 2.193.944l2.01-9.796c.554.114 1.075.34 1.53.658L7.22 15.73Zm2.193.944c.792.162 1.61.16 2.4-.008L9.74 6.882a4.122 4.122 0 0 1 1.683-.005l-2.01 9.796Zm2.4-.008A5.89 5.89 0 0 0 14 15.707L8.213 7.55a4.112 4.112 0 0 1 1.526-.669l2.075 9.783ZM14 15.707a5.915 5.915 0 0 0 1.61-1.718L7.1 8.737c.284-.46.66-.865 1.114-1.186L14 15.706Zm1.61-1.718c.413-.669.687-1.41.81-2.178l-9.874-1.583c.084-.524.27-1.03.554-1.49l8.51 5.251Zm.778-2 .106-.537-9.81-1.94-.106.538 9.81 1.939Zm.106-.535a.838.838 0 0 1-.324.502l-6.035-7.974a9.163 9.163 0 0 0-3.45 5.529l9.809 1.943Zm-.324.502c-.192.145-.45.225-.722.197l1.013-9.949a8.973 8.973 0 0 0-6.326 1.778l6.035 7.974Zm-.722.197a.99.99 0 0 1-.641-.32l7.488-6.628a9.011 9.011 0 0 0-5.834-3l-1.013 9.948Zm-.641-.32a.79.79 0 0 1-.206-.523l10-.024a9.21 9.21 0 0 0-2.306-6.081l-7.488 6.628Zm-.206-.535a.79.79 0 0 1 .233-.552l7.162 6.98a9.21 9.21 0 0 0 2.605-6.428h-10Zm.233-.552a1 1 0 0 1 .715-.292l.004 10a9.001 9.001 0 0 0 6.443-2.728l-7.162-6.98Zm.717-.292H2.5v10h13.05v-10Zm-13.05 0c-1.606 0-3.12.655-4.216 1.78l7.16 6.98a4.111 4.111 0 0 1-2.944 1.24v-10Zm-4.216 1.78A5.935 5.935 0 0 0-3.4 16.377h10a4.065 4.065 0 0 1-1.156 2.838l-7.16-6.981ZM-3.4 16.377c0 1.53.592 3.023 1.684 4.143l7.16-6.98A4.065 4.065 0 0 1 6.6 16.376h-10Zm1.684 4.143A5.889 5.889 0 0 0 2.5 22.3v-10c1.129 0 2.185.461 2.944 1.24l-7.16 6.98ZM2.5 22.3h13.05v-10H2.5v10Zm13.176-.002a10.783 10.783 0 0 0 7.54-3.359l-7.244-6.894a.786.786 0 0 1-.547.257l.25 9.996Zm7.54-3.359a11.083 11.083 0 0 0 3.043-7.636l-10-.003c0 .301-.116.566-.287.745l7.244 6.894Zm3.043-7.636c0-2.83-1.076-5.574-3.038-7.637l-7.248 6.889c.17.179.286.444.286.745l10 .003ZM23.22 3.666A10.784 10.784 0 0 0 15.682.302l-.257 9.996a.785.785 0 0 1 .548.257l7.248-6.89Zm2.68 4.942a9.444 9.444 0 0 0-6.763 2.861l7.16 6.981a.558.558 0 0 1-.398.158v-10Zm-6.763 2.861a9.676 9.676 0 0 0-2.738 6.754h10a.326.326 0 0 1-.102.227l-7.16-6.981ZM16.4 18.223c0 1.53.592 3.023 1.684 4.143l7.16-6.98a4.065 4.065 0 0 1 1.156 2.837h-10Zm1.684 4.143a5.889 5.889 0 0 0 4.216 1.78v-10c1.129 0 2.185.461 2.944 1.24l-7.16 6.98Zm4.216 1.78c1.606 0 3.12-.655 4.216-1.78l-7.16-6.98a4.111 4.111 0 0 1 2.944-1.24v10Zm4.216-1.78a5.935 5.935 0 0 0 1.684-4.143h-10c0-1.04.402-2.064 1.157-2.838l7.16 6.981Zm1.684-4.143c0 .414-.119.828-.355 1.19l-8.38-5.458a7.82 7.82 0 0 0-1.265 4.268h10Zm-.355 1.19a2.285 2.285 0 0 1-1.023.854l-3.91-9.204a7.717 7.717 0 0 0-3.446 2.892l8.378 5.459Zm-1.023.854a2.363 2.363 0 0 1-1.395.14l2-9.799a7.637 7.637 0 0 0-4.515.455l3.91 9.204Zm-1.395.14a2.32 2.32 0 0 1-1.198-.652l7.16-6.98a7.68 7.68 0 0 0-3.963-2.167l-1.999 9.798Zm-1.198-.652a2.207 2.207 0 0 1-.59-1.12l9.818-1.904a7.793 7.793 0 0 0-2.068-3.957l-7.16 6.981Zm-.59-1.12c-.078-.408-.039-.833.12-1.225l9.272 3.745a7.835 7.835 0 0 0 .426-4.424l-9.817 1.904Zm.12-1.225c.158-.393.435-.749.815-1.009l5.653 8.249a7.756 7.756 0 0 0 2.804-3.495l-9.273-3.745Zm.815-1.009a2.348 2.348 0 0 1 1.326-.409v10a7.652 7.652 0 0 0 4.327-1.342l-5.653-8.249Zm1.326-.409H2.5v10h23.4v-10Zm-23.4 0c-1.606 0-3.12.656-4.216 1.78l7.16 6.981a4.111 4.111 0 0 1-2.944 1.24v-10Zm-4.216 1.78A5.935 5.935 0 0 0-3.4 21.915h10a4.065 4.065 0 0 1-1.156 2.838l-7.16-6.98ZM-3.4 21.915c0 1.531.592 3.024 1.684 4.144l7.16-6.981A4.065 4.065 0 0 1 6.6 21.915h-10Zm1.684 4.144a5.889 5.889 0 0 0 4.216 1.78v-10c1.129 0 2.185.46 2.944 1.239l-7.16 6.98Zm4.216 1.78h17.55v-10H2.5v10Zm17.54 0A2.778 2.778 0 0 1 18.053 27l7.174-6.967a7.222 7.222 0 0 0-5.167-2.195l-.02 10ZM18.053 27a2.662 2.662 0 0 1-.757-1.86l10 .02a7.338 7.338 0 0 0-2.07-5.127l-7.173 6.967Zm-.757-1.86a2.662 2.662 0 0 1 .764-1.857l7.146 6.995a7.338 7.338 0 0 0 2.09-5.119l-10-.019Zm.764-1.857a2.779 2.779 0 0 1 1.991-.83l-.02 10a7.221 7.221 0 0 0 5.175-2.175l-7.146-6.995Zm1.977-.83c.68 0 1.319.247 1.807.669l-6.543 7.562a7.241 7.241 0 0 0 4.744 1.769l-.008-10Zm1.807.669c.485.42.787.98.885 1.57l-9.865 1.637a7.348 7.348 0 0 0 2.437 4.355l6.543-7.562Zm.888 1.587-.01-.056-9.87 1.604.01.056 9.87-1.604Zm.012.091A5.94 5.94 0 0 0 22 22.61l-8.658 5.002a4.06 4.06 0 0 1-.51-1.5l9.913-1.31ZM22 22.61a5.916 5.916 0 0 0-1.552-1.759l-6.034 7.975a4.085 4.085 0 0 1-1.072-1.214l8.658-5.003Zm-1.552-1.759a5.89 5.89 0 0 0-2.147-1.023l-2.389 9.71a4.11 4.11 0 0 1-1.498-.712l6.034-7.975ZM18.3 19.827a5.878 5.878 0 0 0-2.393-.086l1.682 9.858a4.123 4.123 0 0 1-1.678-.061l2.389-9.71Zm-2.393-.086a5.885 5.885 0 0 0-2.219.868l5.452 8.383c-.466.303-.993.511-1.551.607l-1.682-9.858Zm-2.219.868a5.913 5.913 0 0 0-1.677 1.649l8.289 5.594a4.09 4.09 0 0 1-1.16 1.14l-5.452-8.383Zm-1.677 1.649a5.937 5.937 0 0 0-.896 2.14l9.8 1.989a4.065 4.065 0 0 1-.615 1.465l-8.289-5.594Zm-.896 2.14a5.945 5.945 0 0 0-.012 2.306l9.82-1.89c.1.52.097 1.054-.008 1.573l-9.8-1.99Zm-.038 2.163.01.055 9.87-1.604-.009-.055-9.87 1.604Zm.01.064a9.205 9.205 0 0 0 3.046 5.465l6.552-7.555c.16.138.244.31.27.47l-9.867 1.62Zm3.046 5.465a9.014 9.014 0 0 0 5.91 2.21l-.003-10c.255 0 .482.093.645.235l-6.552 7.555Zm5.906 2.21a9.006 9.006 0 0 0 6.446-2.721l-7.152-6.989c.166-.17.42-.29.71-.29l-.004 10Zm6.446-2.721a9.215 9.215 0 0 0 2.615-6.424l-10-.018c0-.181.07-.38.232-.547l7.153 6.989Zm2.615-6.433a9.21 9.21 0 0 0-1.495-5.04L19.23 25.57a.79.79 0 0 1-.13-.425h10Zm-5.682 2.692H25.9v-10h-2.482v10Zm2.482 0a9.444 9.444 0 0 0 6.762-2.86l-7.16-6.982a.558.558 0 0 1 .398-.157v10Zm6.762-2.86a9.676 9.676 0 0 0 2.738-6.755h-10c0-.062.023-.146.102-.227l7.16 6.981Zm2.738-6.755c0-2.51-.97-4.942-2.738-6.754l-7.16 6.981a.326.326 0 0 1-.102-.227h10Zm-2.738-6.754A9.444 9.444 0 0 0 25.9 8.608v10a.558.558 0 0 1-.398-.158l7.16-6.981Z" mask="url(#a)"/></svg>